<svg width="608" height="358" fill="none" xmlns="http://www.w3.org/2000/svg"><g clip-path="url(#clip0_217_2319)"><path d="M198.766 94.893l-92.952 186.665c-2.54 5.105.767 11.182 6.432 11.818l298.001 33.503a8.21 8.21 0 008.415-4.817l89.455-200.736c2.325-5.218-1.258-11.157-6.959-11.533L206.655 90.36a8.213 8.213 0 00-7.889 4.533z" fill="#3F5ACB"/><path d="M195.078 90.487l-92.951 186.665c-2.542 5.103.766 11.18 6.431 11.817l298.001 33.504a8.211 8.211 0 008.416-4.817l89.454-200.736c2.326-5.218-1.258-11.157-6.958-11.533L202.968 85.954a8.213 8.213 0 00-7.89 4.533z" fill="url(#paint0_linear_217_2319)"/><path d="M367.987 283.775l-216.614-26.301c-2.265-.275-3.609-2.674-2.664-4.751a3.377 3.377 0 013.454-1.952l216.799 24.73c2.868.328 4.542 3.403 3.26 5.988a4.165 4.165 0 01-4.235 2.286zM273.298 249.3l-111.382-13.059c-2.276-.267-3.631-2.674-2.681-4.757a3.38 3.38 0 013.422-1.96l111.549 11.545c2.871.297 4.567 3.37 3.283 5.956a4.141 4.141 0 01-4.191 2.275z" fill="#fff" fill-opacity=".2"/><path d="M247.215 145.432l-46.563-4.632a6.564 6.564 0 00-6.506 3.563l-15.465 30.474c-2.062 4.065.54 8.943 5.065 9.493l47.109 5.719a6.566 6.566 0 006.73-3.713l14.918-31.563c1.94-4.105-.77-8.892-5.288-9.341z" fill="#8798D1"/><path d="M195.739 146.609l-13.815 28.098c-1.502 3.056.477 6.679 3.858 7.067l44.049 5.057a4.928 4.928 0 004.956-2.666l14.437-28.481c1.562-3.08-.446-6.768-3.88-7.125l-44.672-4.677a4.927 4.927 0 00-4.933 2.727z" fill="#FFCBDA"/><path d="M187.412 162.082l55.67 6.583m-41.187-24.591l-5.211 11.592 41.754 4.938 6.021-12.059-42.564-4.471zm-17.602 36.985l4.517-9.044 40.478 4.597-4.516 9.046-40.479-4.599z" stroke="#fff" stroke-opacity=".3" stroke-width=".91"/><path d="M467.237 126.847l-46.219-2.843a5.41 5.41 0 00-5.264 3.178l-13.181 29.243c-1.543 3.418.775 7.329 4.514 7.619l45.143 3.5a5.411 5.411 0 005.304-3.066l14.256-29.901c1.651-3.462-.725-7.496-4.553-7.73z" fill="url(#paint1_linear_217_2319)"/><path d="M38.143 268.952L-.92 280.087m55.119-106.603l-27.641-13.446M404.059-5.338l10.081-28.547m90.397 79.615l26.297-21.781m23.663 126.589l33.178-4.903" stroke="#E0DEDF" stroke-width="4" stroke-linecap="round" stroke-linejoin="round"/><g filter="url(#filter0_d_217_2319)"><path d="M200.986 123.984l-.175-.527a59.804 59.804 0 01-.942-3.155l-2.77-10.555c.281 1.055.605 2.104.944 3.142l.173.54c.346.999.711 1.974 1.103 2.953.087.195.16.387.249.569.313.745.651 1.495.958 2.198l.52 1.1c.391.76.81 1.525 1.233 2.264.132.245.251.487.399.72a56.942 56.942 0 001.804 2.88l.512.7c.487.696.986 1.394 1.504 2.068.252.336.509.645.778.97.455.567.935 1.151 1.42 1.709l.897.993a76.56 76.56 0 001.501 1.573l.949.934c.556.544 1.172 1.059 1.707 1.571.294.262.585.536.905.803a32.17 32.17 0 002.321 1.81l.443.344a63.913 63.913 0 002.921 2.047l.91.557c.711.449 1.436.902 2.178 1.33l1.248.661c.684.376 1.37.739 2.072 1.091l1.258.608a60.52 60.52 0 002.153.955l1.272.529c.805.316 1.615.606 2.425.896l1.171.413a70.27 70.27 0 003.704 1.098c33.223 8.74 69.106-9.341 80.15-40.372a55.73 55.73 0 003.083-14.227c.104-1.352.169-2.712.18-4.083a51.588 51.588 0 00-.252-5.935 53.337 53.337 0 00-1.411-7.718l2.756 10.552a53.832 53.832 0 01-1.523 31.923c-11.044 31.031-46.927 49.112-80.15 40.372-1.31-.33-2.489-.703-3.704-1.098l-1.171-.413a49.571 49.571 0 01-2.427-.883l-1.27-.542a42.762 42.762 0 01-2.153-.955c-.444-.194-.869-.411-1.258-.608l-2.074-1.078-1.246-.674a71.138 71.138 0 01-2.193-1.32l-.895-.567a53.323 53.323 0 01-2.921-2.047l-.43-.342c-.805-.605-1.579-1.231-2.4-1.825l-.892-.8a34.557 34.557 0 01-1.71-1.558 30.167 30.167 0 01-.946-.947 57.95 57.95 0 01-1.501-1.573l-.897-.993a43.852 43.852 0 01-1.434-1.711c-.254-.323-.525-.635-.764-.968a46.206 46.206 0 01-1.517-2.07l-.499-.698a58.374 58.374 0 01-1.817-2.882l-.388-.705c-.434-.754-.837-1.53-1.231-2.277a25.75 25.75 0 01-.52-1.1c-.163-.374-.441-.865-.633-1.3-.193-.434-.245-.595-.38-.895l-.236-.566a88.056 88.056 0 01-1.071-2.906z" fill="url(#paint2_linear_217_2319)"/><path d="M197.132 109.774c-8.118-30.98 12.911-63.329 46.968-72.252 34.057-8.923 68.246 8.958 76.363 39.938 8.117 30.981-12.911 63.329-46.968 72.252-34.057 8.923-68.246-8.957-76.363-39.938z" fill="url(#paint3_linear_217_2319)"/><path style="mix-blend-mode:overlay" opacity=".7" d="M198.635 77.827c11.031-31.034 46.914-49.115 80.137-40.375 33.222 8.74 51.211 40.97 40.167 72.001-11.045 31.031-46.928 49.112-80.15 40.372-33.223-8.741-51.138-40.997-40.154-71.998zm40.255 71.605c1.504.394 3.031.737 4.555 1.025 31.805 6.002 64.763-12.068 75.095-41.148a52.918 52.918 0 00-2.873-42.949c-7.431-14.07-20.573-24.208-37.01-28.518a67.171 67.171 0 00-4.553-1.037c-31.804-6.003-64.765 12.081-75.108 41.145a52.948 52.948 0 002.87 42.962c7.445 14.072 20.589 24.197 37.024 28.52z" fill="url(#paint4_linear_217_2319)"/><path d="M207.49 106.753l-.136-.588a36.992 36.992 0 01-.333-1.504l-.151-.728c-.087-.483-.161-.964-.24-1.418-.037-.24-.077-.467-.103-.692a27.701 27.701 0 01-.211-1.865l-.032-.267a29.99 29.99 0 01-.129-2.151c.038-.199-.018-.415-.017-.635a47.092 47.092 0 01-.009-1.552l.018-.752c.013-.505.042-1.021.068-1.524l.048-.69c.061-.69.118-1.35.208-2.047a.617.617 0 00.03-.16c.135-.715.275-1.457.347-2.199l.125-.662.297-1.577.145-.769c.1-.53.28-1.045.417-1.554.045-.239.09-.477.199-.69.222-.74.457-1.478.719-2.211.262-.733.55-1.46.852-2.186.045-.239.18-.446.278-.675.217-.494.434-.989.664-1.48.114-.24.23-.492.357-.729.23-.492.471-.968.725-1.441.122-.21.231-.423.342-.65a1.73 1.73 0 00.145-.26l.444-.753c.245-.421.489-.842.741-1.233.252-.392.413-.663.624-.98.211-.317.52-.794.793-1.223.274-.429.464-.64.688-.954.224-.315.555-.76.829-1.12l.739-.931.89-1.081.784-.881c.3-.355.611-.695.935-1.032l.822-.86.978-.968.87-.824c.345-.305.68-.627 1.039-.93l.889-.779 1.085-.879c.192-.142.375-.313.566-.456l.289-.22a69.17 69.17 0 012.543-1.84 1.4 1.4 0 01.157-.107c.82-.559 1.655-1.06 2.512-1.598l.77-.445a58.985 58.985 0 012.255-1.262c.195-.087.379-.19.563-.292.939-.468 1.889-.92 2.848-1.343l.213-.11.697-.28 1.578-.65 1.032-.381 1.558-.543 1.067-.348a52.038 52.038 0 011.585-.47l1.057-.294c.564-.154 1.137-.28 1.699-.42l.746-.175.256-.048 1.225-.235 1.294-.236 1.317-.218c.438-.069.863-.14 1.297-.181.433-.042.84-.089 1.26-.133l1.3-.125 1.261-.064 1.028-.067.291.055c.333-.02.675-.01 1.019-.013.343-.004.978-.022 1.47-.011l1.064.036 1.444.053.993.05 1.43.133 1.088.123.583.11.557.105 2.173.41.927.175c1.008.19 2.028.383 3.026.695.998.312 1.618.442 2.409.688l.079.015.606.21 1.754.592.843.337 1.442.575.901.39 1.26.594.904.445.665.331.535.293 1.045.568 1.1.647.996.613c.354.232.711.45 1.049.692l.973.664c.341.23.677.485 1.002.725.325.24.627.461.923.71l.435.314.435.384 1.18 1.02.777.681 1.163 1.111.705.696c.404.406.79.836 1.136 1.258l.559.6a54.887 54.887 0 011.608 1.95c.665.839 1.27 1.708 1.872 2.59.139.205.279.41.403.625.589.88 1.133 1.778 1.643 2.712l.173.32a58.49 58.49 0 011.295 2.592l.292.631a31.82 31.82 0 011.157 2.963l.065.164a43.22 43.22 0 011.149 3.798l.166.65c.116.474.217.96.32 1.432l.148.742c.087.483.172.979.253 1.42l.097.65c.201 1.42.325 2.85.372 4.283-.042.225.01.455.023.677.001.508.014 1.018.001 1.523-.045.239 0 .508-.007.767-.093.49-.042 1.022-.082 1.522-.042.225-.019.463-.048.69a43.592 43.592 0 01-.558 4.41l-.13.69-.292 1.55-.148.782-.417 1.555c-.042.225-.087.463-.199.689a65.45 65.45 0 01-.719 2.211c-.248.736-.55 1.461-.852 2.186l-.291.673c-.204.497-.434.988-.651 1.483-.129.25-.243.489-.359.742l-.72 1.414c-.125.224-.236.45-.36.673a2.077 2.077 0 00-.151.288c-.027.146-.171.256-.254.405-.452.793-.93 1.581-1.432 2.351-.138.221-.26.431-.409.636a52.862 52.862 0 01-1.875 2.665c-.125.155-.253.323-.392.476a36.014 36.014 0 01-1.778 2.148l-.522.588c-.729.809-1.469 1.602-2.236 2.322l-.1.091-.536.517c-.433.398-.867.81-1.313 1.207l-.788.688c-.425.359-.834.707-1.269 1.051-.435.343-.566.455-.855.675-.288.22-.852.663-1.293.964-.441.301-.591.437-.906.652-.315.215-.884.616-1.339.914-.202.127-.38.272-.58.385l-.357.221c-.36.234-.731.452-1.101.67l-1.067.636-1.131.61-1.099.588-1.166.576c-.376.176-.741.368-1.115.531l-1.198.529-.795.357-.369.137-1.037.408-1.283.471-1.057.363-1.286.416-1.092.33-1.302.358-1.111.284-.633.155-.702.156-1.055.212-1.421.254-1.061.17-1.41.2-1.041.133c-.491.059-.991.088-1.493.13l-.977.09-.213-.04-1.385.068-.856.031c-.759.021-1.529.027-2.293.006l-.199-.037a50.262 50.262 0 01-2.504-.116l-.77-.063-1.527-.124-.226-.042-.636-.12c-.583-.11-1.165-.152-1.751-.248l-.795-.15-2.412-.456c-.795-.15-1.59-.3-2.365-.556l-1.889-.535-.318-.06-1.614-.538-.993-.338a41.853 41.853 0 01-1.801-.711l-.728-.288a51.546 51.546 0 01-2.426-1.103l-.463-.238-1.886-.987-.146-.028-.37-.221a43.982 43.982 0 01-2.143-1.296l-.759-.487a66.265 66.265 0 01-2.023-1.425l-.446-.331c-.792-.602-1.555-1.213-2.307-1.807l-.55-.502c-.58-.494-1.18-1.019-1.67-1.551l-.35-.326-.297-.317-.974-1.021-.717-.781-.92-1.093-.646-.794a26.28 26.28 0 01-.912-1.201l-.558-.751a33.212 33.212 0 01-.931-1.397c-.139-.205-.292-.412-.416-.627a39.582 39.582 0 01-1.242-2.074l-.16-.318c-.339-.599-.663-1.21-1.025-1.84-.129-.258-.233-.511-.349-.766-.225-.482-.452-.95-.638-1.493-.186-.543-.244-.595-.353-.89-.109-.295-.365-.906-.526-1.362a2.129 2.129 0 00-.103-.253c-.161-.456-.295-.906-.443-1.36l-.115-.337c-.003-.563-.191-1.244-.365-1.922z" fill="url(#paint5_linear_217_2319)"/><path d="M213.053 108.063c-6.101-23.286 9.705-47.6 35.303-54.307 25.599-6.707 51.297 6.732 57.398 30.018 6.101 23.286-9.705 47.6-35.303 54.307-25.599 6.707-51.297-6.733-57.398-30.018z" fill="url(#paint6_linear_217_2319)"/><path d="M224.977 87.176a1.684 1.684 0 01-1.986.998l-3.925-1.016a1.348 1.348 0 01-1.03-1.813 1.699 1.699 0 011.999-.995l3.857 1.016a1.346 1.346 0 011.119 1.239c.014.2-.018.401-.092.588l.058-.017zm23.638 43.382l-1.307 3.651a1.686 1.686 0 01-1.986.998 1.346 1.346 0 01-1.119-1.239 1.34 1.34 0 01.092-.588l1.293-3.654a1.703 1.703 0 012-.995 1.346 1.346 0 011.119 1.239 1.34 1.34 0 01-.092.588zm25.466-71.594l-1.296 3.667a1.7 1.7 0 01-1.986.997 1.352 1.352 0 01-1.117-1.228 1.357 1.357 0 01.087-.585l1.309-3.665a1.702 1.702 0 011.999-.995 1.356 1.356 0 01.95.669 1.358 1.358 0 01.078 1.159l-.024-.019zm15.525 23.324a2.28 2.28 0 01-1.132 1.268L262.932 96.66l10.494 19.218a2.57 2.57 0 01.148 2.127 3.101 3.101 0 01-1.516 1.704 3.004 3.004 0 01-4.026-1.062l-10.568-19.341a3.182 3.182 0 01-1.715-4.002 3.955 3.955 0 014.666-2.399l.396.157 25.632-13.21a2.278 2.278 0 013.034.793 1.976 1.976 0 01.11 1.599l.019.045zm10.79 24.708a1.686 1.686 0 01-2 .995l-3.857-1.016a1.347 1.347 0 01-1.116-1.229 1.356 1.356 0 01.086-.585 1.686 1.686 0 012-.995l3.846 1a1.36 1.36 0 01.949.669 1.34 1.34 0 01.078 1.158" fill="url(#paint7_linear_217_2319)"/></g></g><defs><linearGradient id="paint0_linear_217_2319" x1="106.912" y1="289.056" x2="531.865" y2="108.774" gradientUnits="userSpaceOnUse"><stop stop-color="#6386FF"/><stop offset="1" stop-color="#3C56C6"/></linearGradient><linearGradient id="paint1_linear_217_2319" x1="422.98" y1="120.496" x2="451.667" y2="170.29" gradientUnits="userSpaceOnUse"><stop stop-color="#fff"/><stop offset="1" stop-color="#fff" stop-opacity="0"/></linearGradient><linearGradient id="paint2_linear_217_2319" x1="343.549" y1="95.625" x2="206.534" y2="146.358" gradientUnits="userSpaceOnUse"><stop offset=".04" stop-color="#FFC826"/><stop offset=".11" stop-color="#FFA018"/><stop offset=".43" stop-color="#F8771E"/><stop offset=".51" stop-color="#EC6D1A"/><stop offset=".67" stop-color="#CD510E"/><stop offset=".72" stop-color="#C14609"/><stop offset=".83" stop-color="#C3480A"/><stop offset=".89" stop-color="#CA4E0D"/><stop offset=".93" stop-color="#D75A11"/><stop offset=".96" stop-color="#E96A18"/><stop offset=".98" stop-color="#F8771E"/><stop offset=".99" stop-color="#FA821C"/><stop offset="1" stop-color="#FFA018"/></linearGradient><linearGradient id="paint3_linear_217_2319" x1="-54949.5" y1="23455.6" x2="-59106" y2="34989.8" gradientUnits="userSpaceOnUse"><stop offset=".03" stop-color="#FCE878"/><stop offset=".05" stop-color="#FCE676"/><stop offset=".7" stop-color="#FEB432"/><stop offset="1" stop-color="#FFA018"/></linearGradient><linearGradient id="paint4_linear_217_2319" x1="-63677.9" y1="32425.5" x2="-58597.3" y2="21265.8" gradientUnits="userSpaceOnUse"><stop stop-color="#FFE6B9" stop-opacity="0"/><stop offset=".16" stop-color="#FFECC9" stop-opacity=".23"/><stop offset=".36" stop-color="#FFF2DC" stop-opacity=".5"/><stop offset=".54" stop-color="#FFF8EB" stop-opacity=".71"/><stop offset=".7" stop-color="#FFFCF6" stop-opacity=".87"/><stop offset=".82" stop-color="#FFFEFD" stop-opacity=".97"/><stop offset=".9" stop-color="#fff"/></linearGradient><linearGradient id="paint5_linear_217_2319" x1="-49968.9" y1="27022.3" x2="-49980.6" y2="16974.3" gradientUnits="userSpaceOnUse"><stop offset=".04" stop-color="#FFC826"/><stop offset=".11" stop-color="#FFA018"/><stop offset=".43" stop-color="#F8771E"/><stop offset=".51" stop-color="#EC6D1A"/><stop offset=".67" stop-color="#CD510E"/><stop offset=".72" stop-color="#C14609"/><stop offset=".83" stop-color="#C3480A"/><stop offset=".89" stop-color="#CA4E0D"/><stop offset=".93" stop-color="#D75A11"/><stop offset=".96" stop-color="#E96A18"/><stop offset=".98" stop-color="#F8771E"/><stop offset=".99" stop-color="#FA821C"/><stop offset="1" stop-color="#FFA018"/></linearGradient><linearGradient id="paint6_linear_217_2319" x1="-41433.1" y1="19739.8" x2="-44145.9" y2="24730.1" gradientUnits="userSpaceOnUse"><stop offset=".04" stop-color="#FEECDD"/><stop offset=".34" stop-color="#F7DFCF"/><stop offset="1" stop-color="#EBC7B5"/></linearGradient><linearGradient id="paint7_linear_217_2319" x1="-40227.3" y1="16788.8" x2="-42295.3" y2="21249.8" gradientUnits="userSpaceOnUse"><stop offset=".03" stop-color="#B3855C"/><stop offset=".52" stop-color="#CC9C7B"/><stop offset="1" stop-color="#E2AF95"/></linearGradient><clipPath id="clip0_217_2319"><path fill="#fff" d="M0 0h608v358H0z"/></clipPath><filter id="filter0_d_217_2319" x="171.391" y="10.226" width="199.57" height="197.259" filterUnits="userSpaceOnUse" color-interpolation-filters="sRGB"><feFlood flood-opacity="0" result="BackgroundImageFix"/><feColorMatrix in="SourceAlpha" values="0 0 0 0 0 0 0 0 0 0 0 0 0 0 0 0 0 0 127 0" result="hardAlpha"/><feOffset dx="11" dy="10"/><feGaussianBlur stdDeviation="17.5"/><feComposite in2="hardAlpha" operator="out"/><feColorMatrix values="0 0 0 0 0.427451 0 0 0 0 0.658824 0 0 0 0 1 0 0 0 0.46 0"/><feBlend in2="BackgroundImageFix" result="effect1_dropShadow_217_2319"/><feBlend in="SourceGraphic" in2="effect1_dropShadow_217_2319" result="shape"/></filter></defs></svg>