<svg width="691" height="138" fill="none" xmlns="http://www.w3.org/2000/svg"><path d="M2 136c4.227-1.104 9.302-2.208 13.245-4.243 2.655-1.37 5.414-3.182 8.22-3.182 2.637 0 5.51-2.518 7.967-.235 1.404 1.303 7.522 2.282 9.135 2.357 8.454.392 17.622 1.204 25.829 3.712 8.373 2.559 15.184-.269 21.973-4.773 4.901-3.252 8.774-10.607 15.02-10.607 3.439 0 7.156-2.405 10.556-3.123 5.412-1.142 11.002-1.258 16.492-2.239 4.914-.878 8.502-.24 13.143.059 3.034.196 6.002-4.82 8.931-6.128 6.929-3.095 14.124-.759 20.907-3.182a576.586 576.586 0 0026.794-10.313c4.241-1.758 8.623-1.53 12.788-3.947 3.181-1.848 4.855-4.893 8.931-5.068 10.023-.431 19.493-1.067 28.062-7.955 6.715-5.398 10.119-8.153 15.579 0 2.681 4.002 5.691 5.878 9.337 8.544 3.235 2.365 7.647 2.28 10.454 5.54 4.332 5.03 9.7 13.75 16.289 15.025 5.366 1.039 8.042-.775 13.143-2.298 3.252-.971 10.255-5.154 12.585-.825 1.988 3.693 6.837 4.52 10.251 5.539 7.668 2.29 17.824 1.685 25.778 1.886 7.196.182 9.888 2.939 15.376 7.896 3.508 3.168 6.737-3.686 9.134-5.185 3.723-2.328 6.845-.59 10.505-.59 2.806 0 7.466-2.745 10.047-4.007 3.407-1.665 10.276 3.709 13.702 4.538 9.573 2.316 19.881 4.168 29.229 7.424 3.452 1.203 6.983 1.577 10.454 2.652 1.839.57 2.749 2.641 4.617 3.123 4.55 1.174 8.129 10.076 11.849 7.484 2.383-1.661 8.529-4.654 11.178-1.886 3.046 3.183 4.723-1.016 9 0 2.662.632 10.652 4.158 13 1.886 0 5.697 10.297-2.38 12-1.886 4.65 1.35 10.721-1.532 15.387-1.296 1.101.055-6.179 2.383-7.815 2.946-4.158 1.431-9.896.236-14.107.236h-20.197c-12.832 0-26.094.567-38.769-1.886-9.227-1.786-19.642-.236-28.976-.236h-28.316c-15.752 0-31.642 1.061-47.244 1.061-22.359 0-44.546-2.121-66.832-2.121-23.445 0-46.683 1.06-70.13 1.06h-92.966c-12.781 0-25.458-.825-38.21-1.06-6.796-.126-13.539 0-20.3 0H36.71" stroke="#fff" stroke-width="3" stroke-linecap="round"/><path d="M283 92.217c4.967-4.09 10.249-8.997 15.499-12.144 1.524-.914 3.082-1.518 4.86-1.518 1.526 0 2.417 1.617 3.77 1.707 3.881.259 7.2.854 11.31.854 5.078 0 9.666 1.708 14.703 1.708 2.875 0 6.133-4.652 8.714-6.357 3.598-2.376 8.514-8.159 12.609-8.159 3.681 0 6.668-1.312 9.383-4.08 2.779-2.832 6.75-4.039 10.054-5.74 4.333-2.23 11.078-2.214 15.792-3.035 4.096-.714 7.754-5.076 11.687-5.076 4.218 0 6.863-1.493 10.557-3.416 6.81-3.543 12.443-6.31 17.761-12.333 2.447-2.77 6.113-5.317 8.629-1.755 2.231 3.157 9.551-4.066 11.478-5.55 1.91-1.47 3.385-3.58 5.279-5.124 1.838-1.498 4.177-2.57 5.864-4.269 2.639-2.657 9.574-3.863 11.31-7.305.9-1.784 9.805-9.934 10.557-8.444 2.253 4.465 7.345 6.356 11.729 6.356 2.064 0 3.838-1.348 5.99-.806 2.123.534 2.327 4.522 3.729 5.882 1.691 1.642 1.939 5.701 3.476 7.733 2.283 3.016 4.82 5.027 7.918 6.83 3.087 1.798 8.457 4.13 10.305 7.685 2.614 5.034 10.111 6.05 14.577 5.977 2.355-.038 7.568-2.31 9.761-.38 1.638 1.444 3.704 4.693 4.482 6.832 1.12 3.08 3.212 5.25 5.32 7.637 2.625 2.973 6.286 4.212 9.383 6.404 1.737 1.229 5.363-.28 6.661 1.044 3.85 3.923 6.099 9.54 10.556 13.092 4.074 3.246 8.058 8.392 11.059 12.761 3.571 5.199 8.401 5.962 14.075 5.503 3.417-.277 5.709-3.368 8.588-3.368 1.157 0 3.081 2.041 4.147 2.751 3.121 2.08 5.118 7.751 8.294 9.867 3.641 2.425 6.096 6.614 10.138 7.922 8.106 2.623 18.177 13.633 26.776 15.709C674.1 128.982 684.601 135 689 135" stroke="#fff" stroke-width="3" stroke-linecap="round"/><path fill="#fff" d="M87 136h603v-2H87z"/></svg>