<svg width="820" height="201" fill="none" xmlns="http://www.w3.org/2000/svg"><path d="M412.5 9.63c-15.21-1.253-12.921-4.354-28.945-4.354-8.912 0-16.487-1.092-25.66-1.092C326.559 4.184 295.218 2 263.758 2c-15.384 0-30.718 1.092-46.187 1.092-7.277 0-14.353-.407-21.009 1.031-4.711 1.019-2.244 2.119 1.925 2.245 6.906.209 13.902 2.057 21.008 2.184 25.73.458 55.924 2.403 80.186 8.978 3.615.98 20.328 2.415 21.57 5.702.701 1.857-8.421 3.986-9.943 4.49-6.621 2.19-13.617 3.724-20.127 6.187-.764.289-13.86 3.38-10.825 5.217 8.206 4.966 26.904 1.92 36.484 1.335 27.249-1.666 81.95-2.427 81.95-2.427s-31.76 11.54-47.871 16.925c-5.075 1.697-23.194 4.452-23.655 10.374-.165 2.128 14.166 1.092 15.797 1.092 19.681 0 38.387-1.37 57.974-3.276 8.683-.845 17.253-1.092 25.98-1.092 2.289 0 5.057-.168 1.283 0-7.708.343-20.389 11.281-26.301 14.68-5.11 2.939-1.995 4.385 3.208 3.822 10.225-1.105 20.231-4.644 30.551-5.945 13.63-1.718 27.679-3.98 40.814-7.097 8.139-1.932 8.262-.028 1.684 2.184-5.262 1.769-8.886 8.647-13.872 11.162-3.585 1.807-8.66 7.691-8.66 11.222 0 3.753 11.787.234 14.433-.303 23.901-4.851 48.446-13.54 70.724-21.535 9.587-3.44 18.995-6.704 29.027-9.282 1.424-.366 4.748-2.015 2.405-.243-3.752 2.84-7.321 5.47-10.103 8.979-8.808 11.105-19.645 21.471-28.706 32.515-3.37 4.108-10.922 12.649-7.377 17.714 2.787 3.983 9.15-4.347 10.664-5.581 18.866-15.37 36.452-31.757 57.012-45.922 4.929-3.396 9.32-6.805 13.792-10.495.851-.702-2.457 1.291-2.887 1.941-4.453 6.738-6.811 15.71-8.98 22.93-1.19 3.962-4.906 17.962 1.443 20.505 3.789 1.518 11.125-5.404 12.99-7.158 7.04-6.621 28.74-26.084 22.211-19.17-3.774 3.998-5.459 13.288-2.004 17.593 7.34 9.146 48.535-27.977 52.361-30.696 5.069-3.603 20.066-14.466 15.797-10.313-2.221 2.16-1.534 13.815-1.684 16.197-.256 4.056-2.1 21.755 6.014 23.72 11.159 2.701 29.731-23.722 33.838-28.512 1.317-1.537 13.471-16.208 13.471-9.949 0 5.88.031 11.03 2.887 16.622 3.27 6.403 3.632 6.338 8.018.606 1.746-2.28 9.237-17.897 14.434-15.65 8.056 3.482 12.838-2.682 16.518 4.974 5.971 12.422 22.145-13.118 25.98-16.986" stroke="#fff" stroke-width="3" stroke-linecap="round"/><path d="M210.19 32c-32.286 4.473-6.619-1.549-43.329 1.222a296.553 296.553 0 00-38.286 5.443c-3.161.664-13.681 1.076-16.309 3.126-2.217 1.728 6.264.215 9.398.215h27.989c10.74 0 25.307-1.668 35.798.485 2.044.42 10.871-.209 5.598 2.21-4.193 1.923-8.016 4.311-12.439 6.036-34.976 13.638-70.042 26.183-106.289 37.78-17.677 5.655-35.144 11.658-52.246 18.27-6.468 2.5-13.27 3.747-17.83 8.192-1.553 1.514 4.759 1.724 5.322 1.724 7.933 0 15.56.235 23.358-1.024a699.878 699.878 0 0153.56-6.521c26.43-2.177 52.803-7.361 78.921-11.21 9.269-1.365 18.642-1.555 27.92-2.802 7.15-.962 14.257-2.866 21.423-3.611 5.751-.598 2.836.203.069 1.401-23.472 10.17-48.916 21.768-74.291 28.618-11.996 3.238-24.018 6.624-35.245 11.21-6.813 2.783-2.519 4.167 2.557 3.287 39.761-6.89 80.355-11.147 120.179-18.27 29.026-5.191 58.279-9.547 87.215-15.036 7.116-1.35 14.165-2.925 21.285-4.258 1.136-.212 4.218-1.174 1.451-.215-11.979 4.152-21.635 13.779-31.72 20.156-1.324.837-9.934 6.568-6.773 7.976 4.144 1.847 10.994.107 15.48-.592 27.478-4.286 55.31-7.293 82.861-11.372 9.532-1.412 18.759-3.799 28.266-5.282 2.079-.324 8.122-1.079 6.357-.161-5.482 2.85-10.454 6.572-14.236 10.832-7.433 8.373 8.528.896 13.338-.754 8.721-2.993 17.732-5.095 26.745-7.438 5.812-1.51 1.436 1.111 0 3.126-1.476 2.072-10.782 15.779-3.386 14.498 2.875-.499 6.845-3.577 9.053-5.012 1.046-.68 8.158-3.896 5.252-2.48-3.387 1.651-5.252 11.426-7.464 11.426-2.66 5.63-.85 13.566-3.455 19.209 0 3.62-2.691 9.21-3.386 14.906-.951 7.784-6.245 15.659-6.245 23.489 1.725 10.218-.531 7.716 12.75-1.491 13.813-13.42 12.75-13.42 24.438-24.975 6.694-4.177 10.927-11.09 17.916-14.97 5.83-3.236 13.949-9.27 21.769-9.27 1.838 0-.696 2.878-.898 3.396-2.422 6.206-2.764 13.363-3.732 19.779-1.422 9.424-6.454 26.668 1.797 35.247 3.061 3.183 15.616-10.264 17.208-12.019 14.335-15.805 28.276-31.52 44.575-46.187.302-.272 4.815-4.957 5.183-4.527.931 1.089-1.067 2.594-.76 3.88 2.386 10.004 3.98 19.909 11.472 28.672 9.003 10.532 19.941 6.066 30.753-1.024 18.061-11.844 33.551-26.488 50.242-39.504 4.194-3.271 1.797-.238 1.797 2.91 0 4.605-1.734 16.368 5.528 18.971 7.985 2.861 19.676-4.97 24.534-8.947 3.979-3.258 37.479-39.289 39.599-38.049 4.066 2.379 3.621 10.191 6.081 13.689 5.492 7.81 14.971 10.932 25.709 6.683 9.102-3.602 15.12-13.646 20.594-20.049 4.73-5.532 10.156-10.964 14.789-16.383" stroke="#fff" stroke-width="3" stroke-linecap="round"/></svg>