<svg width="346" height="304" fill="none" xmlns="http://www.w3.org/2000/svg"><path fill-rule="evenodd" clip-rule="evenodd" d="M92.11 214.317c.224 5.423.69 22.341-8.976 35.712-1.615 2.235-5.5 7.498-8.894 6.727-4.163-.947-5.429-10.437-5.682-14.235-.817-12.214 2.357-50.801 8.989-102.746 5.086 15.756 13.33 44.767 14.563 74.542z" fill="#081F2D"/><path clip-rule="evenodd" d="M92.11 214.317c.224 5.423.69 22.341-8.976 35.712-1.615 2.235-5.5 7.498-8.894 6.727-4.163-.947-5.429-10.437-5.682-14.235-.817-12.214 2.357-50.801 8.989-102.746 5.086 15.756 13.33 44.767 14.563 74.542z" stroke="#081F2D" stroke-width="1.574" stroke-linecap="round" stroke-linejoin="round"/><mask id="a" style="mask-type:alpha" maskUnits="userSpaceOnUse" x="48" y="126" width="159" height="115"><path fill-rule="evenodd" clip-rule="evenodd" d="M48.209 163.68l15.476 64.554a132.74 132.74 0 0116.647-3.597c11.925-1.55 26.275-2 42.182.466-1.749 1.849-3.108 4.074-3.638 6.721-.264 1.325-.797 3.911.557 5.9 2.774 4.064 12.136 3.803 23.8-1.189 3.667 1.855 8.096.343 11.878-1.002 3.993-1.419 11.662-4.913 18.888-14.055 13.021 1.552 24.259 1.663 29.036-5.115.52-.743 2.791-4.159 1.957-7.904-.447-2.036-1.726-3.704-3.685-5.122 1.464-.892 2.754-2.112 3.099-3.736.831-3.85-4.034-8.465-11.114-13.163 1.362.195 2.801.22 4.283.045 1.452-.174 7.019-.839 8.314-4.104 2.223-5.636-9.714-15.237-21.805-24.939-9.486-7.629-17.818-14.247-30.878-20.366-10.237-4.789-21.086-8.229-28.115-9.409a49.588 49.588 0 00-8.201-.672c-33.412-.001-64.378 32.124-68.681 36.687z" fill="#fff"/></mask><g mask="url(#a)"><path fill-rule="evenodd" clip-rule="evenodd" d="M48.209 163.68l15.476 64.554a132.74 132.74 0 0116.647-3.597c11.925-1.55 26.275-2 42.182.466-1.749 1.849-3.108 4.074-3.638 6.721-.264 1.325-.797 3.911.557 5.9 2.774 4.064 12.136 3.803 23.8-1.189 3.667 1.855 8.096.343 11.878-1.002 3.993-1.419 11.662-4.913 18.888-14.055 13.021 1.552 24.259 1.663 29.036-5.115.52-.743 2.791-4.159 1.957-7.904-.447-2.036-1.726-3.704-3.685-5.122 1.464-.892 2.754-2.112 3.099-3.736.831-3.85-4.034-8.465-11.114-13.163 1.362.195 2.801.22 4.283.045 1.452-.174 7.019-.839 8.314-4.104 2.223-5.636-9.714-15.237-21.805-24.939-9.486-7.629-17.818-14.247-30.878-20.366-10.237-4.789-21.086-8.229-28.115-9.409a49.588 49.588 0 00-8.201-.672c-33.412-.001-64.378 32.124-68.681 36.687z" fill="#FCD8E3"/></g><path d="M145.713 237.307a7.839 7.839 0 01-3.288-1.225c-3.572-2.364-3.948-6.833-3.974-7.209-.307-4.501 2.687-8.978 7.538-11.011m-24.919 9.092c4.986-6.946 15.919-9.539 16.688-9.712m8.783-54.898a271.57 271.57 0 0125.184 11.776c8.573 4.555 18.129 9.634 24.701 14.494" stroke="#E3B4C2" stroke-width="1.574"/><path d="M148.492 153.083c-.07 2.41-.586 9.125-5.498 15.398-3.523 4.5-7.7 6.72-9.947 7.715" stroke="#E3B4C2" stroke-width="1.574"/><g filter="url(#filter0_d_135_1934)"><path fill-rule="evenodd" clip-rule="evenodd" d="M180.493 170.992l-7.261 56.573c-.955 7.447 4.258 14.277 11.694 15.319l101.98 14.293c7.559 1.059 14.527-4.259 15.499-11.83l7.261-56.572c.955-7.448-4.258-14.278-11.694-15.32l-101.981-14.293c-7.558-1.059-14.527 4.26-15.498 11.83z" fill="#FDFDFD"/></g><g clip-path="url(#clip0_135_1934)" fill="#A2C7FE"><path fill-rule="evenodd" clip-rule="evenodd" d="M258.901 202.049l12.495 1.755c1.419.179 4.083 1.772 3.318 7.22-.765 5.448-3.795 6.454-5.214 6.275l-12.37-1.737c-1.328-.527-3.818-2.754-3.158-7.452.66-4.698 3.555-5.957 4.929-6.061zm1.311 2.924l9.184 1.29.144.018c1.08.129 2.987.357 2.421 4.382-.583 4.152-2.271 3.848-3.361 3.651-.117-.021-.227-.041-.328-.054l-9.091-1.277c-.138-.048-.298-.083-.469-.121-1.049-.231-2.526-.558-1.995-4.34.571-4.066 2.377-3.746 3.29-3.583.075.013.144.025.205.034zm-44.932-8.988l-1.878 13.37s13.986 2.028 15.298 2.213c1.312.184 3.484-1.677 3.818-4.051.348-2.474-1.785-4.073-2.847-4.222l-12.308-1.73.36-2.561 15.307 2.15.377-2.686-18.127-2.483zm1.634 8.32l-.369 2.624 12.121 1.703c.437.062.936-.314 1.05-1.126.106-.752-.316-1.383-.69-1.435-.375-.053-12.112-1.766-12.112-1.766zm18.119-5.609l-1.878 13.37 2.624.369.763-5.435 12.871 1.808c1.079-.125 3.311-.988 3.605-3.444.294-2.456-1.395-4.082-2.484-4.49l-15.501-2.178zm2.363 3.136l-.368 2.624 12.12 1.703c.438.061.936-.315 1.05-1.127.106-.751-.315-1.382-.69-1.435-.375-.052-12.112-1.765-12.112-1.765z"/><path d="M259.437 208.508a.297.297 0 01-.129.214.49.49 0 01-.281.077l-.001.006a.54.54 0 01.286.15c.062.07.086.152.073.247a.37.37 0 01-.204.289c-.117.061-.269.078-.457.052a1.392 1.392 0 01-.494-.148l.035-.254a.954.954 0 00.205.099c.081.028.157.047.228.057.241.034.37-.019.39-.159.009-.063-.023-.117-.096-.162a.9.9 0 00-.334-.098l-.134-.019.033-.237.12.017a.918.918 0 00.336.004c.073-.019.115-.062.124-.128a.136.136 0 00-.049-.126.354.354 0 00-.188-.071.733.733 0 00-.405.062l-.104-.221a.913.913 0 01.276-.082c.094-.012.197-.011.309.005a.642.642 0 01.358.15c.084.078.118.17.103.276zm1.031 1.26l-.056-.354-.52-.073-.151.325-.326-.046.705-1.362.37.052.304 1.504-.326-.046zm-.092-.618l-.089-.545a1.709 1.709 0 01-.012-.1c-.033.081-.124.278-.271.592l.372.053zm1.007-.024l.1.014c.093.013.165.005.216-.025a.193.193 0 00.092-.152c.01-.071-.002-.126-.036-.165-.034-.039-.092-.065-.175-.076l-.137-.02-.06.424zm.715-.13c-.021.153-.086.264-.194.332-.107.068-.249.089-.426.064l-.13-.018-.071.508-.302-.043.2-1.427.456.064c.173.024.299.08.379.168.08.087.109.204.088.352zm1.006 1.142l-.056-.354-.52-.073-.152.325-.326-.046.705-1.362.37.052.305 1.504-.326-.046zm-.093-.618l-.088-.545a1.802 1.802 0 01-.012-.099 23.5 23.5 0 01-.272.592l.372.052zm1.025-.148l.12.017c.186.026.324.084.415.174.091.09.127.204.107.342-.041.297-.259.418-.652.363l-.416-.059.201-1.427.902.127-.035.25-.6-.084-.042.297zm-.088.632l.101.014c.102.015.18.009.232-.017a.172.172 0 00.092-.139c.009-.066-.008-.117-.052-.152a.525.525 0 00-.242-.079l-.077-.011-.054.384zm2.335-.149c-.033.236-.117.41-.252.52-.135.111-.312.151-.531.12-.218-.031-.377-.118-.477-.261-.099-.144-.132-.334-.099-.572.034-.237.118-.41.253-.519.135-.109.312-.148.532-.117.219.031.378.117.476.26.099.143.131.332.098.569zm-1.042-.146c-.022.159-.009.284.041.373.049.089.134.142.254.159.241.034.385-.11.43-.43.045-.322-.053-.499-.293-.533-.12-.017-.217.011-.289.084-.073.072-.12.187-.143.347zm1.788.981l-.303-.043.165-1.175-.387-.055.035-.252 1.078.152-.035.252-.388-.055-.165 1.176zm2.003-.449c-.033.237-.117.41-.252.52-.135.111-.312.151-.531.12-.218-.031-.377-.118-.477-.261-.099-.143-.132-.334-.099-.571.034-.238.118-.411.253-.52.135-.109.312-.148.532-.117.219.031.378.118.476.26.099.143.131.333.098.569zm-1.042-.146c-.022.16-.009.284.041.373.049.089.134.142.254.159.241.034.385-.109.43-.43.045-.322-.053-.499-.293-.533-.12-.017-.217.011-.289.084-.073.072-.12.188-.143.347zm2.401 1.067l-.344-.048-.416-.796-.101.723-.303-.043.201-1.427.302.043-.097.691.609-.619.322.045-.617.612.444.819z"/></g><mask id="b" style="mask-type:alpha" maskUnits="userSpaceOnUse" x="80" y="181" width="126" height="44"><path fill-rule="evenodd" clip-rule="evenodd" d="M80.32 224.633c30.363-8.129 54.082-7.935 70.085-6.274 21.341 2.214 45.077 8.721 52.63-2 .518-.736 2.79-4.15 1.952-7.903-1.827-8.189-16.756-10.396-37.147-15.103-10.554-2.435-25.828-6.293-44.4-12.212l-43.12 43.492z" fill="#fff"/></mask><g mask="url(#b)"><path fill-rule="evenodd" clip-rule="evenodd" d="M80.32 224.633c30.363-8.129 54.082-7.935 70.085-6.274 21.341 2.214 45.077 8.721 52.63-2 .518-.736 2.79-4.15 1.952-7.903-1.827-8.189-16.756-10.396-37.147-15.103-10.554-2.435-25.828-6.293-44.4-12.212l-43.12 43.492z" fill="#FCD8E3"/></g><path d="M127.414 148.3c2.693 5.191 6.53 14.552 5.759 26.256a46.853 46.853 0 01-1.522 9.136m45.124 38.093c-8.325-.863-17.552-2.511-26.37-3.426-16.003-1.66-39.722-1.855-70.085 6.275" stroke="#E3B4C2" stroke-width="1.574"/><path d="M123.439 181.141c18.574 5.919 33.848 9.776 44.401 12.212 16.983 3.92 30.177 6.107 35.169 11.458" stroke="#E3B4C2" stroke-width="1.574"/><path fill-rule="evenodd" clip-rule="evenodd" d="M0 164.301l2.815 106.783c24.099-5.613 41.086-8.454 52.263-10.558 6.77-1.276 13.503-2.511 20.2-3.701-.05.001-.198.004-.354-.004a2.415 2.415 0 01-.38-.018 1.635 1.635 0 01-.306-.053c-4.155-.94-5.426-10.425-5.68-14.23-.82-12.211 2.352-50.795 8.983-102.744-25.85 8.178-51.69 16.347-77.541 24.525z" fill="#F9AEC5"/><path d="M56.955 260.173v0a43.337 43.337 0 01-8.09-27.465l4.281-85.215" stroke="#081F2D" stroke-width="1.574"/><path d="M83.134 250.029c-1.615 2.235-5.502 7.498-8.894 6.727-4.163-.947-5.429-10.436-5.682-14.235-.817-12.214 2.357-50.8 8.988-102.746" stroke="#081F2D" stroke-width="1.574" stroke-linecap="round" stroke-linejoin="round"/><defs><clipPath id="clip0_135_1934"><path fill="#fff" transform="rotate(7.997 -1293.777 1637.953)" d="M0 0h60.944v13.231H0z"/></clipPath><filter id="filter0_d_135_1934" x="137.572" y="133.637" width="207.754" height="169.378" filterUnits="userSpaceOnUse" color-interpolation-filters="sRGB"><feFlood flood-opacity="0" result="BackgroundImageFix"/><feColorMatrix in="SourceAlpha" values="0 0 0 0 0 0 0 0 0 0 0 0 0 0 0 0 0 0 127 0" result="hardAlpha"/><feOffset dy="10.156"/><feGaussianBlur stdDeviation="17.773"/><feColorMatrix values="0 0 0 0 0.6875 0 0 0 0 0.74053 0 0 0 0 0.833333 0 0 0 0.37 0"/><feBlend in2="BackgroundImageFix" result="effect1_dropShadow_135_1934"/><feBlend in="SourceGraphic" in2="effect1_dropShadow_135_1934" result="shape"/></filter></defs></svg>