<svg width="152" height="33" fill="none" xmlns="http://www.w3.org/2000/svg"><g clip-path="url(#clip0_101_1160)" fill="#23262F"><path fill-rule="evenodd" clip-rule="evenodd" d="M109.83 0h31.47c3.567-.052 10.7 2.96 10.7 16.68 0 13.721-7.133 17.256-10.7 17.309h-31.155c-3.462-.84-10.385-5.476-10.385-17.309C99.76 4.848 106.473.735 109.83 0zm4.255 6.767h23.128l.363-.006c2.713-.056 7.501-.154 7.501 9.984 0 10.457-4.276 10.29-7.035 10.182a16.821 16.821 0 00-.829-.02h-22.897c-.357-.069-.763-.1-1.199-.134-2.672-.208-6.433-.501-6.433-10.028 0-10.24 4.57-10.075 6.882-9.991.189.007.363.013.519.013zM0 .158V33.83s35.246.157 38.55.157c3.305 0 8.026-5.35 8.026-11.33 0-6.23-5.822-9.44-8.497-9.44H7.08v-6.45h38.55V0L0 .158zm6.924 19.984v6.608H37.45c1.101 0 2.203-1.101 2.203-3.147 0-1.892-1.26-3.304-2.203-3.304-.944 0-30.526-.157-30.526-.157zM49.725 0v33.673h6.608v-13.69h32.414c2.623-.68 7.836-3.587 7.71-9.755C96.332 4.06 91.597.63 88.764 0h-39.04zm6.923 6.924v6.609h30.526c1.102 0 2.203-1.102 2.203-3.147 0-1.893-1.259-3.305-2.203-3.305s-30.526-.157-30.526-.157z"/><path d="M113.396 15.779a.744.744 0 01-.245.573c-.164.15-.386.246-.667.287v.015c.33.033.582.124.758.273a.724.724 0 01.265.582.912.912 0 01-.403.785c-.267.191-.638.287-1.111.287-.528 0-.952-.064-1.271-.194v-.64c.154.075.334.133.54.175.209.041.403.062.583.062.605 0 .907-.176.907-.529 0-.159-.097-.28-.292-.366-.194-.085-.48-.128-.861-.128h-.337v-.595h.303c.38 0 .657-.036.831-.108.174-.072.26-.192.26-.359a.333.333 0 00-.164-.292c-.108-.074-.272-.111-.49-.111-.337 0-.663.097-.978.292l-.332-.508a2.22 2.22 0 01.652-.298c.229-.064.484-.096.764-.096.392 0 .704.082.937.246.234.164.351.38.351.647zm2.983 2.753l-.261-.855h-1.31l-.261.855h-.821l1.269-3.609h.931l1.274 3.61h-.821zm-.443-1.495l-.408-1.315a4.516 4.516 0 01-.064-.24c-.054.209-.209.728-.465 1.555h.937zm2.481-.408h.251c.234 0 .409-.046.526-.137a.493.493 0 00.174-.406c0-.179-.049-.31-.147-.396-.097-.085-.249-.128-.457-.128h-.347v1.067zm1.721-.57c0 .387-.121.683-.364.887-.241.205-.584.308-1.03.308h-.327v1.278h-.762v-3.594h1.148c.436 0 .767.094.993.282.228.187.342.467.342.839zm2.879 2.473l-.261-.855h-1.31l-.261.855h-.821l1.269-3.609h.932l1.273 3.61h-.821zm-.443-1.495l-.408-1.315a4.516 4.516 0 01-.064-.24 50.23 50.23 0 01-.464 1.555h.936zm2.481-.72h.3c.469 0 .831.095 1.087.285.255.19.383.46.383.807 0 .749-.495 1.123-1.485 1.123h-1.047v-3.594h2.272v.63h-1.51v.749zm0 1.59h.256c.257 0 .446-.04.565-.122.12-.084.18-.21.18-.376s-.061-.285-.182-.357c-.121-.074-.33-.11-.625-.11h-.194v.966zm5.716-1.177c0 .595-.147 1.052-.442 1.372-.295.32-.718.48-1.269.48-.551 0-.973-.16-1.268-.48-.295-.32-.443-.779-.443-1.377s.148-1.055.443-1.37c.296-.316.721-.474 1.273-.474.552 0 .975.16 1.266.477.294.318.44.776.44 1.372zm-2.623 0c0 .402.076.704.229.907.152.203.38.305.683.305.608 0 .912-.404.912-1.212 0-.81-.302-1.215-.907-1.215-.303 0-.532.103-.686.308-.154.203-.231.505-.231.907zm4.755 1.802h-.762v-2.96h-.976v-.634h2.714v.634h-.976v2.96zm4.792-1.802c0 .595-.148 1.052-.443 1.372-.295.32-.718.48-1.268.48-.551 0-.974-.16-1.269-.48-.295-.32-.443-.779-.443-1.377s.148-1.055.443-1.37c.297-.316.721-.474 1.273-.474.553 0 .975.16 1.267.477.293.318.44.776.44 1.372zm-2.624 0c0 .402.077.704.229.907.153.203.38.305.684.305.608 0 .912-.404.912-1.212 0-.81-.303-1.215-.908-1.215-.303 0-.531.103-.685.308-.155.203-.232.505-.232.907zm6.299 1.802h-.865l-1.303-1.822v1.822h-.762v-3.594h.762v1.74l1.288-1.74h.812l-1.311 1.726 1.379 1.868z"/></g><defs><clipPath id="clip0_101_1160"><path fill="#fff" d="M0 0h152v33H0z"/></clipPath></defs></svg>